{
    "asset" : {
        "generator" : "Khronos glTF Blender I/O v0.9.36",
        "version" : "2.0"
    },
    "scene" : 0,
    "scenes" : [
        {
            "name" : "Scene",
            "nodes" : [
                0,
                1,
                2
            ]
        }
    ],
    "nodes" : [
        {
            "name" : "Light",
            "rotation" : [
                -0.5382127165794373,
                0.5924458503723145,
                0.059795551002025604,
                -0.5964557528495789
            ],
            "translation" : [
                -5.095291614532471,
                17.31003761291504,
                5.262335300445557
            ]
        },
        {
            "name" : "Camera",
            "rotation" : [
                -0.32075634598731995,
                0.9054825305938721,
                -0.15186068415641785,
                -0.23271247744560242
            ],
            "translation" : [
                -8.377938270568848,
                22.196697235107422,
                -1.055834412574768
            ]
        },
        {
            "mesh" : 0,
            "name" : "Mball.005",
            "rotation" : [
                0,
                0.9254807829856873,
                0.37879452109336853,
                -1.5077995385581744e-07
            ],
            "scale" : [
                1.7437107563018799,
                1.7437107563018799,
                1.7437107563018799
            ],
            "translation" : [
                0.11438238620758057,
                8.947465896606445,
                -2.6655843257904053
            ]
        }
    ],
    "meshes" : [
        {
            "name" : "Mesh",
            "primitives" : [
                {
                    "attributes" : {
                        "POSITION" : 0,
                        "NORMAL" : 1,
                        "TEXCOORD_0" : 2
                    },
                    "indices" : 3
                },
                {
                    "attributes" : {
                        "POSITION" : 4,
                        "NORMAL" : 5,
                        "TEXCOORD_0" : 6
                    },
                    "indices" : 7
                },
                {
                    "attributes" : {
                        "POSITION" : 8,
                        "NORMAL" : 9,
                        "TEXCOORD_0" : 10
                    },
                    "indices" : 11
                },
                {
                    "attributes" : {
                        "POSITION" : 12,
                        "NORMAL" : 13,
                        "TEXCOORD_0" : 14
                    },
                    "indices" : 15
                },
                {
                    "attributes" : {
                        "POSITION" : 16,
                        "NORMAL" : 17,
                        "TEXCOORD_0" : 18
                    },
                    "indices" : 19
                },
                {
                    "attributes" : {
                        "POSITION" : 20,
                        "NORMAL" : 21,
                        "TEXCOORD_0" : 22
                    },
                    "indices" : 23
                },
                {
                    "attributes" : {
                        "POSITION" : 24,
                        "NORMAL" : 25,
                        "TEXCOORD_0" : 26
                    },
                    "indices" : 27
                },
                {
                    "attributes" : {
                        "POSITION" : 28,
                        "NORMAL" : 29,
                        "TEXCOORD_0" : 30
                    },
                    "indices" : 11
                },
                {
                    "attributes" : {
                        "POSITION" : 31,
                        "NORMAL" : 32,
                        "TEXCOORD_0" : 33
                    },
                    "indices" : 34
                },
                {
                    "attributes" : {
                        "POSITION" : 35,
                        "NORMAL" : 36,
                        "TEXCOORD_0" : 37
                    },
                    "indices" : 38
                },
                {
                    "attributes" : {
                        "POSITION" : 39,
                        "NORMAL" : 40,
                        "TEXCOORD_0" : 41
                    },
                    "indices" : 42
                },
                {
                    "attributes" : {
                        "POSITION" : 43,
                        "NORMAL" : 44,
                        "TEXCOORD_0" : 45
                    },
                    "indices" : 46
                }
            ]
        }
    ],
    "accessors" : [
        {
            "bufferView" : 0,
            "componentType" : 5126,
            "count" : 65534,
            "max" : [
                2.5565202236175537,
                3.2810657024383545,
                2.1986944675445557
            ],
            "min" : [
                -2.556520462036133,
                -4.233883857727051,
                -3.7372000217437744
            ],
            "type" : "VEC3"
        },
        {
            "bufferView" : 1,
            "componentType" : 5126,
            "count" : 65534,
            "type" : "VEC3"
        },
        {
            "bufferView" : 2,
            "componentType" : 5126,
            "count" : 65534,
            "type" : "VEC2"
        },
        {
            "bufferView" : 3,
            "componentType" : 5123,
            "count" : 79428,
            "type" : "SCALAR"
        },
        {
            "bufferView" : 4,
            "componentType" : 5126,
            "count" : 65533,
            "max" : [
                1.0558068752288818,
                3.2793004512786865,
                2.3311233520507812
            ],
            "min" : [
                -0.938859760761261,
                1.5944952964782715,
                -0.36559510231018066
            ],
            "type" : "VEC3"
        },
        {
            "bufferView" : 5,
            "componentType" : 5126,
            "count" : 65533,
            "type" : "VEC3"
        },
        {
            "bufferView" : 6,
            "componentType" : 5126,
            "count" : 65533,
            "type" : "VEC2"
        },
        {
            "bufferView" : 7,
            "componentType" : 5123,
            "count" : 65535,
            "type" : "SCALAR"
        },
        {
            "bufferView" : 8,
            "componentType" : 5126,
            "count" : 65535,
            "max" : [
                1.0558161735534668,
                3.279968738555908,
                2.3311233520507812
            ],
            "min" : [
                -0.9369224905967712,
                1.5944952964782715,
                -0.35160207748413086
            ],
            "type" : "VEC3"
        },
        {
            "bufferView" : 9,
            "componentType" : 5126,
            "count" : 65535,
            "type" : "VEC3"
        },
        {
            "bufferView" : 10,
            "componentType" : 5126,
            "count" : 65535,
            "type" : "VEC2"
        },
        {
            "bufferView" : 11,
            "componentType" : 5123,
            "count" : 65535,
            "type" : "SCALAR"
        },
        {
            "bufferView" : 12,
            "componentType" : 5126,
            "count" : 65533,
            "max" : [
                1.0562646389007568,
                3.2783780097961426,
                2.3110251426696777
            ],
            "min" : [
                -0.9388682246208191,
                1.5484671592712402,
                -0.3656272888183594
            ],
            "type" : "VEC3"
        },
        {
            "bufferView" : 13,
            "componentType" : 5126,
            "count" : 65533,
            "type" : "VEC3"
        },
        {
            "bufferView" : 14,
            "componentType" : 5126,
            "count" : 65533,
            "type" : "VEC2"
        },
        {
            "bufferView" : 15,
            "componentType" : 5123,
            "count" : 65685,
            "type" : "SCALAR"
        },
        {
            "bufferView" : 16,
            "componentType" : 5126,
            "count" : 65533,
            "max" : [
                1.0562646389007568,
                3.2732110023498535,
                2.1693971157073975
            ],
            "min" : [
                -0.938859760761261,
                1.5478041172027588,
                0.3168632984161377
            ],
            "type" : "VEC3"
        },
        {
            "bufferView" : 17,
            "componentType" : 5126,
            "count" : 65533,
            "type" : "VEC3"
        },
        {
            "bufferView" : 18,
            "componentType" : 5126,
            "count" : 65533,
            "type" : "VEC2"
        },
        {
            "bufferView" : 19,
            "componentType" : 5123,
            "count" : 65769,
            "type" : "SCALAR"
        },
        {
            "bufferView" : 20,
            "componentType" : 5126,
            "count" : 65532,
            "max" : [
                1.0562646389007568,
                3.281529426574707,
                2.1693971157073975
            ],
            "min" : [
                -0.9388682246208191,
                1.583632230758667,
                0.31199967861175537
            ],
            "type" : "VEC3"
        },
        {
            "bufferView" : 21,
            "componentType" : 5126,
            "count" : 65532,
            "type" : "VEC3"
        },
        {
            "bufferView" : 22,
            "componentType" : 5126,
            "count" : 65532,
            "type" : "VEC2"
        },
        {
            "bufferView" : 23,
            "componentType" : 5123,
            "count" : 65544,
            "type" : "SCALAR"
        },
        {
            "bufferView" : 24,
            "componentType" : 5126,
            "count" : 65533,
            "max" : [
                1.0562646389007568,
                3.281529426574707,
                2.1693971157073975
            ],
            "min" : [
                -0.938859760761261,
                1.590255856513977,
                -0.1107945442199707
            ],
            "type" : "VEC3"
        },
        {
            "bufferView" : 25,
            "componentType" : 5126,
            "count" : 65533,
            "type" : "VEC3"
        },
        {
            "bufferView" : 26,
            "componentType" : 5126,
            "count" : 65533,
            "type" : "VEC2"
        },
        {
            "bufferView" : 27,
            "componentType" : 5123,
            "count" : 65547,
            "type" : "SCALAR"
        },
        {
            "bufferView" : 28,
            "componentType" : 5126,
            "count" : 65535,
            "max" : [
                1.0561524629592896,
                3.2801589965820312,
                2.169294834136963
            ],
            "min" : [
                -0.9380741715431213,
                1.9703896045684814,
                -0.1107945442199707
            ],
            "type" : "VEC3"
        },
        {
            "bufferView" : 29,
            "componentType" : 5126,
            "count" : 65535,
            "type" : "VEC3"
        },
        {
            "bufferView" : 30,
            "componentType" : 5126,
            "count" : 65535,
            "type" : "VEC2"
        },
        {
            "bufferView" : 31,
            "componentType" : 5126,
            "count" : 65534,
            "max" : [
                1.0552328824996948,
                3.281529426574707,
                2.1675970554351807
            ],
            "min" : [
                -0.9385059475898743,
                1.6655161380767822,
                -0.0940173864364624
            ],
            "type" : "VEC3"
        },
        {
            "bufferView" : 32,
            "componentType" : 5126,
            "count" : 65534,
            "type" : "VEC3"
        },
        {
            "bufferView" : 33,
            "componentType" : 5126,
            "count" : 65534,
            "type" : "VEC2"
        },
        {
            "bufferView" : 34,
            "componentType" : 5123,
            "count" : 65556,
            "type" : "SCALAR"
        },
        {
            "bufferView" : 35,
            "componentType" : 5126,
            "count" : 65533,
            "max" : [
                2.3843774795532227,
                3.070573329925537,
                2.711064100265503
            ],
            "min" : [
                -2.563211441040039,
                -4.934863567352295,
                -1.1010836362838745
            ],
            "type" : "VEC3"
        },
        {
            "bufferView" : 36,
            "componentType" : 5126,
            "count" : 65533,
            "type" : "VEC3"
        },
        {
            "bufferView" : 37,
            "componentType" : 5126,
            "count" : 65533,
            "type" : "VEC2"
        },
        {
            "bufferView" : 38,
            "componentType" : 5123,
            "count" : 66387,
            "type" : "SCALAR"
        },
        {
            "bufferView" : 39,
            "componentType" : 5126,
            "count" : 49580,
            "max" : [
                2.3843774795532227,
                1.8536524772644043,
                2.711064100265503
            ],
            "min" : [
                -2.563211441040039,
                -4.934863567352295,
                -1.5597550868988037
            ],
            "type" : "VEC3"
        },
        {
            "bufferView" : 40,
            "componentType" : 5126,
            "count" : 49580,
            "type" : "VEC3"
        },
        {
            "bufferView" : 41,
            "componentType" : 5126,
            "count" : 49580,
            "type" : "VEC2"
        },
        {
            "bufferView" : 42,
            "componentType" : 5123,
            "count" : 52890,
            "type" : "SCALAR"
        },
        {
            "bufferView" : 43,
            "componentType" : 5126,
            "count" : 15,
            "max" : [
                0.6035307049751282,
                2.832240343093872,
                1.2156548500061035
            ],
            "min" : [
                -0.3421957492828369,
                1.7237476110458374,
                0.47976434230804443
            ],
            "type" : "VEC3"
        },
        {
            "bufferView" : 44,
            "componentType" : 5126,
            "count" : 15,
            "type" : "VEC3"
        },
        {
            "bufferView" : 45,
            "componentType" : 5126,
            "count" : 15,
            "type" : "VEC2"
        },
        {
            "bufferView" : 46,
            "componentType" : 5123,
            "count" : 15,
            "type" : "SCALAR"
        }
    ],
    "bufferViews" : [
        {
            "buffer" : 0,
            "byteLength" : 786408,
            "byteOffset" : 0
        },
        {
            "buffer" : 0,
            "byteLength" : 786408,
            "byteOffset" : 786408
        },
        {
            "buffer" : 0,
            "byteLength" : 524272,
            "byteOffset" : 1572816
        },
        {
            "buffer" : 0,
            "byteLength" : 158856,
            "byteOffset" : 2097088
        },
        {
            "buffer" : 0,
            "byteLength" : 786396,
            "byteOffset" : 2255944
        },
        {
            "buffer" : 0,
            "byteLength" : 786396,
            "byteOffset" : 3042340
        },
        {
            "buffer" : 0,
            "byteLength" : 524264,
            "byteOffset" : 3828736
        },
        {
            "buffer" : 0,
            "byteLength" : 131070,
            "byteOffset" : 4353000
        },
        {
            "buffer" : 0,
            "byteLength" : 786420,
            "byteOffset" : 4484072
        },
        {
            "buffer" : 0,
            "byteLength" : 786420,
            "byteOffset" : 5270492
        },
        {
            "buffer" : 0,
            "byteLength" : 524280,
            "byteOffset" : 6056912
        },
        {
            "buffer" : 0,
            "byteLength" : 131070,
            "byteOffset" : 6581192
        },
        {
            "buffer" : 0,
            "byteLength" : 786396,
            "byteOffset" : 6712264
        },
        {
            "buffer" : 0,
            "byteLength" : 786396,
            "byteOffset" : 7498660
        },
        {
            "buffer" : 0,
            "byteLength" : 524264,
            "byteOffset" : 8285056
        },
        {
            "buffer" : 0,
            "byteLength" : 131370,
            "byteOffset" : 8809320
        },
        {
            "buffer" : 0,
            "byteLength" : 786396,
            "byteOffset" : 8940692
        },
        {
            "buffer" : 0,
            "byteLength" : 786396,
            "byteOffset" : 9727088
        },
        {
            "buffer" : 0,
            "byteLength" : 524264,
            "byteOffset" : 10513484
        },
        {
            "buffer" : 0,
            "byteLength" : 131538,
            "byteOffset" : 11037748
        },
        {
            "buffer" : 0,
            "byteLength" : 786384,
            "byteOffset" : 11169288
        },
        {
            "buffer" : 0,
            "byteLength" : 786384,
            "byteOffset" : 11955672
        },
        {
            "buffer" : 0,
            "byteLength" : 524256,
            "byteOffset" : 12742056
        },
        {
            "buffer" : 0,
            "byteLength" : 131088,
            "byteOffset" : 13266312
        },
        {
            "buffer" : 0,
            "byteLength" : 786396,
            "byteOffset" : 13397400
        },
        {
            "buffer" : 0,
            "byteLength" : 786396,
            "byteOffset" : 14183796
        },
        {
            "buffer" : 0,
            "byteLength" : 524264,
            "byteOffset" : 14970192
        },
        {
            "buffer" : 0,
            "byteLength" : 131094,
            "byteOffset" : 15494456
        },
        {
            "buffer" : 0,
            "byteLength" : 786420,
            "byteOffset" : 15625552
        },
        {
            "buffer" : 0,
            "byteLength" : 786420,
            "byteOffset" : 16411972
        },
        {
            "buffer" : 0,
            "byteLength" : 524280,
            "byteOffset" : 17198392
        },
        {
            "buffer" : 0,
            "byteLength" : 786408,
            "byteOffset" : 17722672
        },
        {
            "buffer" : 0,
            "byteLength" : 786408,
            "byteOffset" : 18509080
        },
        {
            "buffer" : 0,
            "byteLength" : 524272,
            "byteOffset" : 19295488
        },
        {
            "buffer" : 0,
            "byteLength" : 131112,
            "byteOffset" : 19819760
        },
        {
            "buffer" : 0,
            "byteLength" : 786396,
            "byteOffset" : 19950872
        },
        {
            "buffer" : 0,
            "byteLength" : 786396,
            "byteOffset" : 20737268
        },
        {
            "buffer" : 0,
            "byteLength" : 524264,
            "byteOffset" : 21523664
        },
        {
            "buffer" : 0,
            "byteLength" : 132774,
            "byteOffset" : 22047928
        },
        {
            "buffer" : 0,
            "byteLength" : 594960,
            "byteOffset" : 22180704
        },
        {
            "buffer" : 0,
            "byteLength" : 594960,
            "byteOffset" : 22775664
        },
        {
            "buffer" : 0,
            "byteLength" : 396640,
            "byteOffset" : 23370624
        },
        {
            "buffer" : 0,
            "byteLength" : 105780,
            "byteOffset" : 23767264
        },
        {
            "buffer" : 0,
            "byteLength" : 180,
            "byteOffset" : 23873044
        },
        {
            "buffer" : 0,
            "byteLength" : 180,
            "byteOffset" : 23873224
        },
        {
            "buffer" : 0,
            "byteLength" : 120,
            "byteOffset" : 23873404
        },
        {
            "buffer" : 0,
            "byteLength" : 30,
            "byteOffset" : 23873524
        }
    ],
    "buffers" : [
        {
            "byteLength" : 23873556,
            "uri" : "bab.bin"
        }
    ]
}
